<?xml version="1.0" encoding="UTF-8" standalone="no"?>
<!-- Created with Inkscape (http://www.inkscape.org/) -->

<svg
   xmlns:dc="http://purl.org/dc/elements/1.1/"
   xmlns:cc="http://creativecommons.org/ns#"
   xmlns:rdf="http://www.w3.org/1999/02/22-rdf-syntax-ns#"
   xmlns:svg="http://www.w3.org/2000/svg"
   xmlns="http://www.w3.org/2000/svg"
   xmlns:xlink="http://www.w3.org/1999/xlink"
   xmlns:sodipodi="http://sodipodi.sourceforge.net/DTD/sodipodi-0.dtd"
   xmlns:inkscape="http://www.inkscape.org/namespaces/inkscape"
   width="1233.4832"
   height="782.67596"
   id="svg2"
   sodipodi:version="0.32"
   inkscape:version="0.92.3 (2405546, 2018-03-11)"
   version="1.0"
   sodipodi:docname="birddog_exercise.svg"
   inkscape:output_extension="org.inkscape.output.svg.inkscape"
   viewBox="0 0 1156.3905 733.75873">
  <defs
     id="defs4">
    <linearGradient
       id="linearGradient3169">
      <stop
         style="stop-color:#743600;stop-opacity:1;"
         offset="0"
         id="stop3171" />
      <stop
         style="stop-color:#563a21;stop-opacity:1;"
         offset="1"
         id="stop3173" />
    </linearGradient>
    <inkscape:perspective
       sodipodi:type="inkscape:persp3d"
       inkscape:vp_x="0 : 526.1811 : 1"
       inkscape:vp_y="0 : 1000 : 0"
       inkscape:vp_z="744.09451 : 526.1811 : 1"
       inkscape:persp3d-origin="372.04725 : 350.78739 : 1"
       id="perspective10" />
    <inkscape:perspective
       id="perspective2390"
       inkscape:persp3d-origin="372.04725 : 350.78739 : 1"
       inkscape:vp_z="744.09451 : 526.1811 : 1"
       inkscape:vp_y="0 : 1000 : 0"
       inkscape:vp_x="0 : 526.1811 : 1"
       sodipodi:type="inkscape:persp3d" />
    <inkscape:perspective
       id="perspective3209"
       inkscape:persp3d-origin="372.04725 : 350.78739 : 1"
       inkscape:vp_z="744.09451 : 526.1811 : 1"
       inkscape:vp_y="0 : 1000 : 0"
       inkscape:vp_x="0 : 526.1811 : 1"
       sodipodi:type="inkscape:persp3d" />
    <linearGradient
       inkscape:collect="always"
       xlink:href="#linearGradient3169"
       id="linearGradient3175"
       x1="-3.4300435"
       y1="452.47455"
       x2="1161.7739"
       y2="452.47455"
       gradientUnits="userSpaceOnUse" />
  </defs>
  <sodipodi:namedview
     id="base"
     pagecolor="#ffffff"
     bordercolor="#666666"
     borderopacity="1.0"
     inkscape:pageopacity="0.0"
     inkscape:pageshadow="2"
     inkscape:zoom="0.24748737"
     inkscape:cx="1258.0053"
     inkscape:cy="-97.908462"
     inkscape:document-units="px"
     inkscape:current-layer="layer1"
     showgrid="false"
     inkscape:window-width="1366"
     inkscape:window-height="1012"
     inkscape:window-x="545"
     inkscape:window-y="32"
     inkscape:window-maximized="0" />
  <metadata
     id="metadata7">
    <rdf:RDF>
      <cc:Work
         rdf:about="">
        <dc:format>image/svg+xml</dc:format>
        <dc:type
           rdf:resource="http://purl.org/dc/dcmitype/StillImage" />
        <dc:title></dc:title>
      </cc:Work>
    </rdf:RDF>
  </metadata>
  <g
     inkscape:label="Livello 1"
     inkscape:groupmode="layer"
     id="layer1"
     transform="translate(275.3834,-81.611207)">
    <g
       id="g2422"
       transform="matrix(0.91587295,0.03030698,-0.0479457,1.4489125,875.09373,-783.95512)"
       style="stroke:#000000;stroke-width:0.95436901;stroke-miterlimit:4;stroke-dasharray:none;stroke-opacity:1">
      <path
         style="fill:#feea00;stroke:#000000;stroke-width:0.95436901;stroke-miterlimit:4;stroke-dasharray:none;stroke-opacity:1"
         d="m -1139.2055,1046.845 -2.7454,-10.358 28.1752,-55.64202 28.1752,-55.6421 3.667,-4e-4 c 2.0168,-2e-4 230.24198,-5.4 507.16698,-11.9996 276.925,-6.5995 506.9488,-11.9993 511.1641,-11.9995 l 7.6641,-5e-4 22.7227,34.25 c 12.4974,18.8375 28.085,42.4266 34.639,52.4201 l 11.9163,18.17002 -2.6635,9.83 c -1.4649,5.4065 -2.7621,9.9408 -2.8828,10.0763 -0.1994,0.224 -1132.85558,31.2536 -1140.83158,31.2536 h -3.4218 z"
         id="path2430"
         inkscape:connector-curvature="0"
         sodipodi:nodetypes="cccccscccccccscc" />
      <path
         style="fill:#ccac00;stroke:#000000;stroke-width:0.95436901;stroke-miterlimit:4;stroke-dasharray:none;stroke-opacity:1"
         d="m -1139.2055,1046.8449 -2.7454,-10.3579 28.1752,-55.64208 28.1752,-55.64204 3.667,-4.3e-4 c 2.0168,-2.4e-4 230.24196,-5.40004 507.16696,-11.99957 276.925,-6.59953 506.9488,-11.99933 511.1641,-11.99957 l 7.6641,-4.3e-4 22.7227,34.25 c 12.4974,18.8375 28.085,42.42652 34.639,52.42004 l 11.9163,18.17008 -2.6635,9.8299 c -1.4649,5.4065 -2.7621,9.9409 -2.8828,10.0764 -0.1994,0.2239 -1132.85556,31.2536 -1140.83156,31.2536 h -3.4218 z m 577.84523,-6.134 c 312.34844,-8.518 568.07393,-15.6549 568.27893,-15.8599 0.5185,-0.5185 5.2939,-18.0023 4.9979,-18.2984 -0.3977,-0.3977 -1151.86866,30.5025 -1152.28826,30.9222 -0.2135,0.2134 0.2535,2.602 1.0376,5.308 0.7841,2.7061 1.9249,6.8326 2.5352,9.1701 1.015,3.8882 1.3828,4.2498 4.3209,4.2476 1.7663,-10e-4 258.76928,-6.9716 571.11773,-15.4896 z"
         id="path2428"
         inkscape:connector-curvature="0"
         sodipodi:nodetypes="cccccssccccccsccsscccccs" />
    </g>
    <path
       style="fill:#000000"
       d="m 1274.1857,295.65662 c -7.3136,-0.78757 -13.5868,-1.71698 -13.9403,-2.06533 -1.4061,-1.38555 -4.2479,-16.05507 -5.0521,-26.07953 -0.7295,-9.09381 -0.6834,-11.16855 0.3223,-14.50548 1.0918,-3.62275 1.0812,-3.95788 -0.1518,-4.81077 -0.729,-0.5042 -2.1396,-1.56751 -3.1348,-2.36269 l -1.8094,-1.44595 4.6454,-37.0258 c 5.198,-41.43027 8.2285,-75.0454 9.28,-102.93565 0.3882,-10.298417 1.0302,-46.193107 1.4266,-79.765967 0.3964,-33.5728503 0.958,-63.78981 1.2479,-67.14879 l 0.5272,-6.10722 -2.5735,-1.29055 c -1.4155,-0.70979 -2.6843,-1.38488 -2.8197,-1.50019 -0.1353,-0.11531 1.6604,-7.31576 3.9906,-16.00099 l 4.2367,-15.79134 v -26.552223 -26.55223 l -2.665,-12.09094 c -1.4658,-6.65002 -2.5246,-12.31485 -2.353,-12.58852 0.1717,-0.27367 -0.4248,-0.52669 -1.3255,-0.56228 -0.9007,-0.0356 -2.2211,-0.31866 -2.9341,-0.62908 -1.6904,-0.73594 -5.1628,2.60035 -5.169,4.96635 -0.01,2.44344 -6.3217,27.47261 -14.3239,56.76899 -3.7694,13.799873 -7.0923,26.438853 -7.3842,28.086603 -0.2919,1.64775 -0.7877,3.50147 -1.1018,4.11937 -0.3141,0.61791 -0.1162,3.9883 0.4398,7.48976 0.556,3.50146 1.1792,7.46533 1.3848,8.80859 0.3425,2.23723 0.1171,2.57143 -2.6849,3.97996 -3.2959,1.65677 -7.2335,1.95317 -10.9745,0.8261 -2.1573,-0.64994 -10.1973,-5.84449 -10.1973,-6.58833 0,-0.17761 1.2034,-2.6776 2.6743,-5.55553 5.3288,-10.4266 5.9114,-12.71952 4.8353,-19.02999 -0.834,-4.89053 -0.7407,-7.69337 0.7416,-22.291203 0.9326,-9.18351 2.6962,-27.65108 3.9193,-41.03903 1.223,-13.38794 2.6248,-26.36396 3.1151,-28.83558 0.9575,-4.82649 2.6425,-7.15667 7.6462,-10.57339 2.4849,-1.69682 2.9119,-2.39362 2.9119,-4.7513 0,-5.57414 5.8318,-19.32228 11.6087,-27.36695 2.7985,-3.89701 4.1362,-4.9583 10.0719,-7.99073 6.474,-3.30739 7.3384,-3.54156 15.9555,-4.32202 5.0109,-0.45383 15.0392,-1.11558 22.2851,-1.47052 7.4394,-0.36444 13.5287,-0.99454 13.9884,-1.44744 0.8956,-0.88253 0.7336,-1.16506 -4.4468,-7.75421 -2.0307,-2.58288 -4.4029,-7.26195 -6.7634,-13.34043 -1.9996,-5.1492 -4.2359,-10.71035 -4.9696,-12.3581 -3.5425,-7.95577 -3.6331,-8.876 -2.1033,-21.34583 l 1.4242,-11.60912 6.6297,-9.88381 6.6298,-9.88381 8.6088,-3.0275 8.6089,-3.02751 8.0109,1.97793 8.0109,1.97794 3.5231,4.89611 c 1.9378,2.69287 5.1484,7.04152 7.1347,9.66365 3.1622,4.17436 4,6.13421 6.7343,15.75234 2.9125,10.24513 3.0641,11.24313 2.2515,14.82104 -0.4792,2.10992 -2.3601,6.33265 -4.1798,9.38382 -2.6657,4.46977 -3.5791,6.99585 -4.7013,13.00199 -1.2949,6.93107 -1.5943,7.63389 -4.2647,10.01109 -2.5653,2.28361 -2.872,2.94162 -2.872,6.1609 0,2.04074 0.4485,4.04622 1.034,4.62314 0.7097,0.69932 5.1798,1.30721 14.252,1.93813 10.7203,0.74554 15.1444,1.4229 23.4141,3.58497 9.3411,2.44217 11.1899,3.23723 22.0433,9.47975 11.6644,6.70898 12.0872,7.04436 27.4293,21.76015 8.5702,8.22039 17.7437,17.29916 20.3856,20.17506 4.5738,4.97895 4.7797,5.36668 4.3091,8.11137 -0.4823,2.81329 -0.3388,3.0441 5.9817,9.61569 6.2955,6.54562 8.0732,9.6261 8.0849,14.00987 0.01,2.99984 -3.738,19.3987 -5.3702,23.5085 -0.8998,2.26565 -3.4176,9.5382 -5.5953,16.161223 -3.4898,10.61401 -3.8372,12.22307 -2.9294,13.57026 0.7861,1.16665 0.8529,2.30488 0.2819,4.80886 -0.6605,2.89672 -0.5302,3.64663 1.1139,6.41097 2.5205,4.23792 2.4578,8.8574 -0.2154,15.87666 -1.9251,5.05499 -2.5756,5.90433 -7.6752,10.02119 -5.4192,4.37488 -12.0032,7.31152 -16.349,7.29216 -1.8815,-0.008 -9.2029,-3.20976 -9.9067,-4.33178 -0.4972,-0.7927 4.1802,-12.39821 8.0091,-19.87223 1.7949,-3.5035 2.0692,-4.58828 1.2816,-5.06792 -0.7248,-0.44141 -1.3883,0.36452 -2.3977,2.91261 -1.811,4.57134 -2.1069,4.80826 -4.1165,3.29519 -1.2568,-0.94627 -1.9291,-2.67122 -2.636,-6.7629 l -0.9488,-5.49264 5.1846,-4.9604 5.1846,-4.96039 -0.4984,-19.880513 c -0.2844,-11.34582 -0.2023,-20.84511 0.1912,-22.12743 0.5199,-1.69404 0.3598,-2.89195 -0.6505,-4.86834 -2.1732,-4.2513 -5.1802,-6.41752 -10.9806,-7.91032 -4.5215,-1.16364 -6.0059,-1.9981 -9.8814,-5.55478 -9.2342,-8.47443 -21.2443,-17.99191 -22.7041,-17.99191 -0.2636,0 -0.4793,1.12705 -0.4793,2.50457 0,1.37751 -0.989,7.35996 -2.1979,13.29433 -2.1217,10.4157 -2.211,11.73753 -2.5768,38.12739 l -0.3788,27.337643 3.4107,15.31556 3.4106,15.31557 -2.4345,4.95881 -2.4346,4.9588 0.4864,22.79175 c 0.8107,37.98538 1.8763,59.18277 5.0425,100.3108 1.6649,21.626687 2.9982,43.534227 2.9629,48.683447 -0.052,7.58486 0.3603,11.41873 2.1722,20.19507 l 2.2364,10.83288 -2.519,7.89153 -2.519,7.89152 -0.1937,22.09481 c -0.1855,21.17631 -0.2587,22.1596 -1.7604,23.65382 -1.2004,1.19441 -4.8541,2.20238 -15.623,4.30997 l -14.0562,2.75095 -1.2884,-1.68314 c -2.0074,-2.62231 -2.4546,-11.37893 -1.4442,-28.28263 0.5048,-8.44471 1.1112,-17.13066 1.3475,-19.30212 l 0.4298,-3.9481 -2.1885,0.15295 c -1.2038,0.0841 -3.2364,0.0913 -4.517,0.016 l -2.3284,-0.13699 -0.8341,-13.1475 c -0.5836,-9.19876 -0.6029,-17.01574 -0.064,-26.02693 l 0.7699,-12.8794 -8.5283,-41.942667 c -4.6905,-23.06846 -9.6549,-49.06836 -11.032,-57.77754 -1.3771,-8.70917 -2.9974,-16.7632903 -3.6008,-17.8980303 l -1.0971,-2.06314 -0.5754,2.16952 c -0.3165,1.19325 -1.7049,9.0788303 -3.0854,17.5235403 -1.3805,8.4447 -5.5697,33.21709 -9.3093,55.04974 -11.4147,66.641727 -16.1901,114.292877 -16.1472,161.123457 l 0.012,13.57529 -2.3754,0.46801 c -1.3064,0.25748 -3.8718,0.46812 -5.7008,0.46812 -1.829,0 -3.3251,0.25278 -3.3246,0.5618 0.01,4.22545 2.7929,22.4273 4.2485,27.75785 1.0475,3.83564 1.6972,7.71162 1.4439,8.61324 -1.15,4.09357 -2.9578,7.25067 -4.0985,7.15767 -0.6681,-0.0544 -7.1986,-0.74342 -14.5122,-1.53109 z"
       id="path3225"
       inkscape:connector-curvature="0" />
    <g
       id="g1033"
       transform="matrix(2.4652773,-0.25575663,0.25681811,2.475509,1006.7887,-1018.8414)"
       style="stroke-width:0.40263382">
      <path
         sodipodi:nodetypes="ccsccsccsccc"
         inkscape:connector-curvature="0"
         id="path993-6"
         d="m 53.142185,629.67956 30.30134,-1.00447 c 0,0 22.600465,-9.54241 46.037965,-4.01785 23.43749,5.52456 69.64285,-13.72768 69.64285,-13.72768 71.63368,-7.67834 54.43083,9.29966 39.15113,23.08609 0,0 -39.77476,16.0993 -73.86741,14.20527 -34.09264,-1.89404 -37.40721,-0.94703 -37.40721,-0.94703 l -60.609155,-2.36754 c 0,0 -15.6258,12.78475 -8.99667,25.56949 6.62912,12.78474 -4.73509,8.52315 -4.73509,8.52315 0,0 -13.73176,-15.62578 -12.78475,-21.78141 0.94702,-6.15561 -4.24409,-43.23831 13.267,-27.53802 z"
         style="fill:#ff9955;stroke:#000000;stroke-width:0.37746921px;stroke-linecap:butt;stroke-linejoin:miter;stroke-opacity:1" />
      <path
         sodipodi:nodetypes="cscscccccccscsc"
         inkscape:connector-curvature="0"
         id="path1012-7"
         d="m 287.53857,614.03395 c 0,0 8.99668,-2.36754 8.99668,11.83771 0,14.20527 -4.73509,41.6688 -3.78808,44.50985 0.94702,2.84106 -0.0671,24.16947 5.20861,26.27976 5.91885,2.36754 76.23495,5.44534 76.23495,5.44534 l 3.78807,-10.41719 1.89404,-7.10264 c 0,0 -10.4172,-0.94701 -12.31124,0 -1.89403,0.94703 11.83773,-1.89403 11.83773,-1.89403 0,0 -8.99668,-3.31457 -10.89071,-2.84106 -1.89404,0.47352 -12.78475,6.39238 -12.78475,6.39238 0,0 -24.99214,3.30734 -44.98335,-3.55132 -8.46546,-2.90436 10.8907,-53.98003 10.8907,-53.98003 0,0 0,-26.99001 -13.73176,-21.3079 -13.73176,5.68212 -20.36089,6.62913 -20.36089,6.62913 z"
         style="fill:#ff9955;stroke:#000000;stroke-width:0.37746921px;stroke-linecap:butt;stroke-linejoin:miter;stroke-opacity:1" />
      <path
         inkscape:connector-curvature="0"
         id="path993"
         d="m 13.465845,636.30903 30.30134,-1.00447 c 0,0 22.60046,-9.54241 46.03796,-4.01785 23.437505,5.52456 69.642855,-13.72768 69.642855,-13.72768 0,0 12.89063,-28.125 54.07366,-14.39732 41.18304,13.72768 47.71206,0.50223 69.47545,1.50669 21.7634,1.00447 29.6317,5.02232 29.6317,5.02232 0,0 3.1808,1.67412 6.36161,-0.33482 3.1808,-2.00893 8.53794,-29.12946 38.67187,-16.57366 30.13393,12.55581 0.33482,47.37723 -5.85937,45.53572 -6.1942,-1.84152 -2.67857,6.02679 -2.67857,6.02679 l -7.36607,-1.00447 c 0,0 -1.5067,2.84599 -3.68304,1.33928 -2.17634,-1.50669 0,2.84599 -1.33929,2.34375 -1.33928,-0.50222 -2.34375,0.66965 -4.85491,1.00447 -2.51116,0.33482 -8.70535,-7.70089 -8.53794,-10.88169 0.16741,-3.18081 -16.90849,-2.34375 -16.90849,-2.34375 0,0 -19.7628,14.83945 -55.74948,9.15734 -35.98669,-5.68211 -52.08599,-3.31456 -52.08599,-3.31456 0,0 -39.77476,16.0993 -73.86741,14.20527 -34.092655,-1.89404 -37.407225,-0.94703 -37.407225,-0.94703 l -60.60915,-2.36754 c 0,0 -15.6258,12.78475 -8.996672,25.56949 6.629128,12.78474 -4.735088,8.52316 -4.735088,8.52316 0,0 -13.73175977,-15.62579 -12.78474377,-21.78142 C 1.1458672,657.69144 -4.0452398,620.60874 13.465845,636.30903 Z"
         style="fill:#ff9955;stroke:#000000;stroke-width:0.37746921px;stroke-linecap:butt;stroke-linejoin:miter;stroke-opacity:1" />
      <path
         sodipodi:nodetypes="cscscccccccscsc"
         inkscape:connector-curvature="0"
         id="path1012"
         d="m 256.36723,624.0723 c 0,0 8.99668,-2.36754 8.99668,11.83772 0,14.20527 -4.73509,41.6688 -3.78808,44.50985 0.94702,2.84106 -0.0671,24.16947 5.20861,26.27976 5.91885,2.36754 76.23495,5.44534 76.23495,5.44534 l 3.78807,-10.41719 1.89404,-7.10264 c 0,0 -10.4172,-0.94701 -12.31124,0 -1.89403,0.94703 11.83773,-1.89403 11.83773,-1.89403 0,0 -8.99668,-3.31457 -10.89071,-2.84106 -1.89404,0.47352 -12.78475,6.39238 -12.78475,6.39238 0,0 -24.99214,3.30734 -44.98335,-3.55132 -8.46546,-2.90436 10.8907,-53.98003 10.8907,-53.98003 0,0 0,-26.99002 -13.73176,-21.30791 -13.73176,5.68212 -20.36089,6.62913 -20.36089,6.62913 z"
         style="fill:#ff9955;stroke:#000000;stroke-width:0.37746921px;stroke-linecap:butt;stroke-linejoin:miter;stroke-opacity:1" />
    </g>
    <g
       id="g1157"
       transform="matrix(1.8146249,0,0,1.8179407,1066.0654,801.10221)"
       style="stroke-width:0.55057526">
      <path
         inkscape:connector-curvature="0"
         id="path1121-5"
         d="m 329.54451,255.12492 c 3.98341,0.45344 22.22726,4.89873 20.16082,2.62655 -2.06645,-2.27217 22.05573,-2.32117 17.81754,-4.69845 -4.2382,-2.37728 -9.50964,-5.89065 -13.30746,-5.68345 -3.79784,0.20718 -20.90313,-5.26908 -27.16365,-3.66056 -6.26052,1.60853 -98.51596,-13.63023 -109.61856,-14.5151 -11.10259,-0.88487 -30.74281,1.90075 -26.40229,10.23472 4.3405,8.33397 -0.15551,12.15661 8.53156,12.57703 8.68707,0.42042 31.46305,-2.38721 37.86199,-1.46932 6.39893,0.91789 25.75927,1.20321 25.75927,1.20321 0,0 28.77867,1.78376 36.55992,2.03 7.78124,0.24627 18.77849,3.2982 21.00844,3.10202 2.22996,-0.19618 8.79242,-1.74665 8.79242,-1.74665 z"
         style="fill:#ff9955;fill-opacity:1;stroke:#000000;stroke-width:0.51616436px;stroke-linecap:butt;stroke-linejoin:miter;stroke-opacity:1" />
      <path
         sodipodi:nodetypes="ccccscsccccsscc"
         inkscape:connector-curvature="0"
         id="path1119-3"
         d="m 500.22438,258.10694 -16.09931,3.78807 c 0,0 -38.82774,-2.84105 -43.08932,-2.36755 -4.26159,0.47351 -3.31456,-18.46685 -1.42053,-18.94037 1.89404,-0.47349 -31.25159,-48.29791 -32.67212,-55.40054 -1.42053,-7.10263 2.36754,-18.94036 2.36754,-18.94036 0,0 -39.30124,32.43537 -47.3509,35.51317 -9.29845,3.55527 -15.62578,16.09931 -20.83439,19.41387 -5.20859,3.31457 -16.57282,8.52317 -27.46352,4.73509 -33.04323,-3.81234 -46.20067,-31.26914 -18.26817,-40.28633 l 25.13404,-11.60097 c 0,0 78.36574,-44.94529 94.46507,-38.07941 16.09929,6.86588 27.81582,54.71849 30.15957,74.80778 2.34375,20.08928 20.4241,31.47322 20.4241,31.47322 0,0 34.47444,10.67491 34.64794,15.88433 z"
         style="fill:#ff9955;fill-opacity:1;stroke:#000000;stroke-width:0.5161643px;stroke-linecap:butt;stroke-linejoin:miter;stroke-opacity:1" />
      <path
         sodipodi:nodetypes="ccccscscscscsscccccccccsccsscc"
         inkscape:connector-curvature="0"
         id="path1119"
         d="m 500.22438,263.73194 -16.09931,3.78807 c 0,0 -38.82774,-2.84105 -43.08932,-2.36754 -4.26159,0.4735 -3.31456,-18.46686 -1.42053,-18.94037 1.89404,-0.4735 -31.25159,-48.29792 -32.67212,-55.40055 -1.42053,-7.10263 2.36754,-18.94036 2.36754,-18.94036 0,0 -39.30124,32.43537 -47.3509,35.51317 -9.29845,3.55527 -15.62579,16.09931 -20.8344,19.41387 -5.20859,3.31457 -16.57281,8.52317 -27.46352,4.73509 -10.8907,-3.78807 -22.25492,-6.15561 -22.25492,-6.15561 0,0 -34.09265,16.57281 -56.82108,30.77809 -22.72844,14.20526 -49.71845,8.99667 -49.24495,1.42052 0.47352,-7.57615 -16.86426,3.39134 -28.88404,6.85891 -21.605,6.23278 -43.26554,-34.06938 -5.68211,-47.58068 9.23548,-3.32017 11.87203,-0.14534 11.87203,-0.14534 l 9.375,-5.02232 c 0,0 3.01339,2.59487 2.92968,5.44085 -0.0837,2.84598 3.18081,1.42299 3.18081,1.42299 l -0.92076,5.02232 c 0,0 0.16741,-5.77567 2.09263,-4.52009 1.92523,1.25558 5.18974,3.76674 8.95648,2.84599 3.76674,-0.92076 -1.42299,10.29575 -1.42299,10.29575 l 6.86383,2.26005 c 0,0 5.69197,-22.76786 28.125,-31.1384 22.43305,-8.37053 69.81723,-15.81936 69.81723,-15.81936 l 28.88404,-11.60097 c 0,0 78.36574,-41.19529 94.46506,-34.32941 16.0993,6.86588 27.81583,54.71849 30.15958,74.80778 2.34375,20.08928 20.4241,31.47322 20.4241,31.47322 0,0 34.47444,10.67491 34.64794,15.88433 z"
         style="fill:#ff9955;fill-opacity:1;stroke:#000000;stroke-width:0.51616436px;stroke-linecap:butt;stroke-linejoin:miter;stroke-opacity:1" />
      <path
         inkscape:connector-curvature="0"
         id="path1121"
         d="m 337.00502,264.25386 c 4.35267,0.33482 24.77678,-0.66965 22.09821,1.33928 -2.67858,2.00893 23.10268,7.03125 18.08036,8.70536 -5.02232,1.67411 -11.38394,4.35268 -15.40179,3.34821 -4.01786,-1.00446 -23.4375,1.33929 -29.79911,-1.6741 -6.36161,-3.0134 -108.14732,-5.69197 -120.20089,-7.03125 -12.05357,-1.33929 -32.47769,-8.37054 -26.11607,-16.40625 6.3616,-8.03572 2.34375,-13.05804 11.71875,-11.71875 9.375,1.33928 33.14732,9.04018 40.17857,9.375 7.03125,0.33481 27.79018,4.01785 27.79018,4.01785 0,0 31.13839,4.01786 39.50892,5.35715 8.37054,1.33928 20.75893,0.33482 23.10268,1.00446 2.34376,0.66964 9.04019,3.68304 9.04019,3.68304 z"
         style="fill:#ff9955;fill-opacity:1;stroke:#000000;stroke-width:0.51616436px;stroke-linecap:butt;stroke-linejoin:miter;stroke-opacity:1" />
    </g>
    <path
       style="fill:#ffb380;stroke:#000000;stroke-width:0.93750006px;stroke-linecap:butt;stroke-linejoin:miter;stroke-opacity:1"
       d="m 253.71078,375.92369 c 0,0 -33.64724,37.52949 0.8763,124.63424 17.30675,43.66586 2.62888,35.10823 2.62888,35.10823 0,0 -77.11364,-9.65476 -86.75285,0 -9.63921,9.65477 -24.53618,-21.94265 -30.67021,-16.67641 -6.13405,5.26623 -18.40212,29.84199 -18.40212,29.84199 l -40.309399,19.30953 c 0,0 30.670199,10.53246 64.845549,0 34.17539,-10.53247 59.58784,1.75542 111.28903,7.89937 51.70119,6.14394 49.94862,-15.79872 49.94862,-15.79872 0,0 7.8866,-67.58334 4.38145,-98.30306 -3.50517,-30.71971 6.13403,-71.97188 6.13403,-71.97188 0,0 -56.08265,-43.88529 -63.96928,-14.04329 z"
       id="path1247"
       inkscape:connector-curvature="0"
       sodipodi:nodetypes="cscscccsscscc" />
    <path
       style="fill:#ffb380;stroke:#000000;stroke-width:0.93750006px;stroke-linecap:butt;stroke-linejoin:miter;stroke-opacity:1"
       d="m 431.59797,354.85873 146.34068,1.75543 c 0,0 79.74252,-10.53247 88.50542,-14.92101 31.37946,-7.18137 43.76142,-12.50085 43.76142,-12.50085 0,0 24.13459,-2.25454 19.97323,-5.03121 -4.16137,-2.77667 -19.92008,-2.65516 -19.92008,-2.65516 0,0 46.78106,-9.86619 31.31186,-10.69867 -15.46918,-0.8325 -49.71398,6.31013 -49.71398,6.31013 0,0 -18.40211,9.65477 -53.45376,4.38854 -35.05166,-5.26625 -77.11366,2.63312 -77.11366,2.63312 0,0 -99.02094,1.7554 -102.52611,3.51081 -3.50516,1.7554 -61.3404,-10.53247 -27.16502,27.20887 z"
       id="path1249"
       inkscape:connector-curvature="0"
       sodipodi:nodetypes="cccczczcsccc" />
    <path
       style="fill:#ffb380;stroke:#000000;stroke-width:0.93750006px;stroke-linecap:butt;stroke-linejoin:miter;stroke-opacity:1"
       d="m -112.3961,325.15059 c 0,-4.34442 34.079736,-24.82528 38.417157,-22.34274 14.251528,-13.03328 34.699373,-12.41263 34.699373,-12.41263 0,0 10.605445,8.29035 5.347693,12.8983 -5.257752,4.60795 57.854728,24.96022 63.431418,24.33959 37.58814,-0.13142 63.65379,24.54643 95.423279,35.99665 0,0 27.26379,-4.34442 60.10427,3.72378 32.84047,8.06821 38.41715,-29.79031 83.65026,-14.89516 45.23312,14.89516 104.71776,-32.27284 104.71776,-32.27284 0,0 29.74231,-10.55075 51.42941,-4.34442 21.68711,6.20631 43.37422,4.34442 49.57054,0 6.19631,-4.34443 48.77536,-34.70967 69.80636,-11.88933 21.03099,22.82037 24.09802,56.17318 1.31443,66.26681 -22.78358,10.09361 -28.47948,5.26623 -28.47948,5.26623 0,0 -3.067,9.65477 -8.32476,10.97132 -5.25776,1.31655 -8.76291,-6.58278 -8.76291,-6.58278 0,0 -3.94333,-1.31657 -5.25774,0.87769 -1.31444,2.19428 -2.19075,2.19428 -2.19075,2.19428 l -3.50517,-4.82739 -1.31443,4.38854 c 0,0 -1.75257,-3.51085 -7.01033,-2.19428 -5.25774,1.31656 -11.82993,-8.33821 -11.39177,-14.48214 0.43813,-6.14396 -7.88664,-14.04329 -13.58252,-6.58278 -5.6959,7.46048 -2.19074,41.25216 -111.72718,56.17316 -109.53642,14.92099 -113.89366,14.08988 -174.23167,9.07825 -37.39359,-9.27097 -89.570139,-21.81581 -109.686759,-45.9419 -0.8763,-10.53247 -57.8352464,-21.06495 -75.361066,-35.10823 -10.872993,-8.33179 -63.957937,-24.65753 -73.01999,-20.85197 -6.240349,2.10983 -18.199495,5.98569 -24.065425,2.55399 z"
       id="path1243"
       inkscape:connector-curvature="0"
       sodipodi:nodetypes="cccsccsscscsscsccccccccsccccc" />
    <path
       style="fill:#ffb380;stroke:#000000;stroke-width:0.93750006px;stroke-linecap:butt;stroke-linejoin:miter;stroke-opacity:1"
       d="m 379.02046,339.93775 c -1.75256,4.38852 -13.14436,56.17317 -3.50515,100.05846 9.63921,43.88531 4.52831,77.08289 11.39179,103.56928 6.86348,26.4864 15.81955,50.01324 23.22171,55.29548 7.40216,5.28224 23.25663,3.87438 23.25663,3.87438 0,0 27.15976,2.76675 32.62629,-4.90266 5.46655,-7.66943 -22.5041,-9.23798 -22.5041,-9.23798 0,0 6.20552,-1.73595 12.4093,-5.76061 6.20379,-4.02463 -9.83772,-2.05668 -22.20193,1.61386 -3.30573,0.98136 -17.014,-3.1412 -17.014,-3.1412 l -5.25776,-76.3604 -2.62886,-33.35282 c 0,0 2.62886,-29.84199 -1.75259,-44.763 -4.38144,-14.92102 13.14438,-50.90694 13.14438,-50.90694 0,0 -8.76293,-38.61906 -20.1547,-35.10825 -11.3918,3.51083 -21.03101,-0.87769 -21.03101,-0.87769 z"
       id="path1245"
       inkscape:connector-curvature="0"
       sodipodi:nodetypes="cszzczczscccscccc" />
  </g>
</svg>
